PathFileType	4	(X/Y/Z)	C:/Users/beibeiliu/ov580/test_trc/User1\sequence.8_training_dense_left.trc
DataRate	CameraRate	NumFrames	NumMarkers	Units	OrigDataRate	OrigDataStartFrame	OrigNumFrames
120	120	16	19	mm	120	37	289
Frame#	Time	ThumbCMC			ThumbMCP			ThumbIP			ThumbTip			IndexMCP			IndexPIP			IndexTip			MiddleMCP			MiddlePIP			MiddleTip			RingMCP			RingPIP			RingTip			PinkyMCP			PinkyPIP			PinkyTip			BackHand1			BackHand2			BackHand3	
		X0	Y0	Z0	X1	Y1	Z1	X2	Y2	Z2	X3	Y3	Z3	X4	Y4	Z4	X5	Y5	Z5	X6	Y6	Z6	X7	Y7	Z7	X8	Y8	Z8	X9	Y9	Z9	X10	Y10	Z10	X11	Y11	Z11	X12	Y12	Z12	X13	Y13	Z13	X14	Y14	Z14	X15	Y15	Z15	X16	Y16	Z16	X17	Y17	Z17	X18	Y18	Z18	
36	0.3	-192.492	138.531	19.9001	-183.122	153.826	-4.61459	-181.905	169.084	-22.9422	-177.028	190.887	-31.5951	-192.387	132.995	-65.8231	-163.172	120.889	-63.701	-169.838	118.421	-27.9306	-195.255	109.799	-71.0782	-162.486	104.999	-60.7206	-175.258	101.916	-22.6126	-195.204	86.6655	-65.5973	-165.176	85.5158	-51.5692	-182.068	91.3045	-18.1685	-193.992	68.9269	-56.2849	-172.514	73.7671	-40.2701	-187.338	78.2729	-11.2831	-234.851	85.4731	-16.9222	-235.048	83.6452	17.3894	-226.674	117.041	4.43459	
37	0.308333	-193.763	135.685	15.8294	-185.526	152.745	-7.48523	-184.264	167.695	-23.9797	-181.42	188.525	-31.8432	-188.242	128.548	-69.5309	-159.547	119.475	-61.9656	-167.757	122.233	-27.9275	-194.059	103.45	-70.5664	-160.494	100.089	-59.4864	-173.739	100.12	-23.2954	-191.057	81.0645	-65.6559	-160.551	85.9666	-47.3271	-180.003	85.7581	-16.8978	-194.746	61.811	-55.2402	-167.054	67.9828	-40.87	-179.781	80.3039	-14.2683	-230.792	85.4436	-15.1654	-232.586	77.0613	18.1082	-226.124	117.925	1.78865	
38	0.316667	-194.302	132.031	15.3041	-184.359	152.117	-5.72748	-187.367	168.615	-24.999	-184.456	182.361	-35.3525	-190.196	126.742	-68.1659	-156.537	121.129	-63.0026	-166.607	118.654	-28.5874	-189.956	104.111	-71.1964	-156.726	98.5252	-58.5963	-173.179	100.004	-21.1515	-184.999	81.0658	-65.6883	-156.494	82.7707	-48.2432	-172.786	85.6983	-18.2483	-186.816	60.6551	-54.2713	-161.761	65.6251	-40.4438	-178.499	75.6417	-9.46245	-226.763	77.6148	-16.3967	-228.55	79.1904	17.7586	-225.778	114.692	1.81336	
39	0.325	-193.701	129.554	14.8914	-184.706	144.681	-6.3333	-190.309	165.826	-27.8041	-191.092	185.326	-39.3733	-183.243	121.789	-71.0276	-155.024	116.854	-65.412	-164.649	119.395	-28.1944	-183.227	95.1618	-72.9766	-152.67	96.0003	-56.5375	-166.419	96.9088	-23.0767	-181.144	77.9185	-64.6724	-152.624	80.2272	-46.1744	-171.025	82.3004	-16.0305	-179.63	56.4206	-53.8229	-157.18	65.3054	-38.3313	-175.039	73.555	-11.1363	-224.852	76.9402	-16.6868	-224.94	73.1033	17.7138	-222.566	111.384	2.87277	
40	0.333333	-192.908	133.786	13.4523	-186.873	145.522	-8.79744	-192.805	163.885	-26.988	-193.575	182.699	-36.9206	-180.548	116.873	-72.0136	-151.339	115.342	-62.5973	-161.441	115.474	-28.8829	-179.394	92.355	-71.8703	-148.538	94.4071	-57.9704	-163.845	101.574	-22.1594	-175.187	71.343	-63.65	-147.104	78.8732	-46.6058	-167.778	84.5015	-16.5946	-177.5	54.7824	-51.6912	-151.445	62.6175	-37.6831	-168.36	75.7056	-11.0272	-219.897	68.795	-19.4223	-221.812	71.041	18.5409	-221.837	105.037	1.15023	
41	0.341667	-193.861	132.481	14.0234	-184.82	142.61	-6.67373	-194.282	163.783	-28.9631	-197.143	178.541	-39.7485	-179.439	116.71	-69.7567	-148.293	113.768	-64.2205	-158.371	114.282	-29.2936	-174.001	89.4459	-71.8416	-143.699	94.6898	-56.4164	-161.375	95.9959	-20.505	-170.276	67.7751	-62.1808	-143.495	80.3012	-45.2229	-162.994	85.6742	-17.0591	-168.852	49.2333	-49.8798	-146.758	63.6368	-34.8171	-166.259	72.4241	-6.81401	-215.279	67.9634	-17.5415	-218.131	71.6	18.3219	-218.769	104.705	1.74954	
42	0.35	-192.507	129.049	10.5927	-187.668	146.002	-7.4609	-194.785	157.325	-32.525	-197.111	174.045	-41.2746	-176.068	116.6	-70.6041	-143.529	113.687	-59.8129	-159.315	118.128	-27.0429	-167.829	88.1675	-71.15	-139.244	92.2338	-53.9867	-160.346	100.707	-19.481	-164.862	66.5811	-59.8994	-138.612	75.8212	-39.5481	-160.236	83.819	-15.3952	-163.61	47.9988	-47.4632	-142.602	64.4195	-33.1561	-162.357	74.7432	-8.61925	-211.696	66.4529	-15.262	-214.985	68.4948	19.4619	-216.157	101.404	0.471523	
43	0.358333	-192.86	129.966	11.6365	-188.383	141.713	-10.2826	-195.19	156.63	-28.9951	-201.498	175.377	-42.5231	-170.68	109.98	-71.2374	-140.409	114.105	-62.6035	-153.502	116.124	-28.1682	-167.342	85.0493	-69.1622	-135.448	95.9967	-52.6408	-155.283	98.2675	-20.4423	-157.826	67.9443	-60.0121	-134.624	77.3463	-41.5379	-157.341	81.0745	-13.3542	-158.694	51.0788	-47.8873	-138.636	64.4238	-32.486	-157.213	75.5487	-8.91747	-208.558	66.0933	-18.7955	-213.385	64.2501	18.9937	-214.579	101.673	-0.342537	
44	0.366667	-192.188	125.792	13.035	-190.235	144.643	-9.6769	-201.629	159.033	-32.3888	-204.967	171.007	-42.8772	-169.978	112.586	-69.9537	-138.539	112.865	-61.6651	-155.426	116.148	-27.165	-165.554	87.9688	-68.8669	-133.796	93.6378	-54.7283	-153.595	100.486	-19.2732	-152.907	67.0409	-58.936	-131.277	78.5023	-40.305	-155.069	81.7181	-12.7225	-158.07	49.1989	-45.2045	-135.504	65.9811	-28.7874	-160.506	76.3386	-8.82402	-204.903	64.0116	-16.972	-211.632	68.2672	17.0088	-214.645	100.816	-5.12869	
45	0.375	-193.998	127.29	10.5086	-192.878	143.237	-12.4373	-199.863	154.666	-30.7465	-206.01	170.123	-38.7867	-167.252	113.196	-69.9719	-137.39	116.729	-57.3465	-155.072	118.934	-26.8015	-159.263	88.5434	-69.0196	-131.412	95.2222	-48.4099	-151.873	100.891	-18.0478	-153.095	70.9604	-58.6817	-129.872	82.1216	-38.9685	-156.012	84.4038	-11.773	-149.248	50.8502	-44.6027	-132.02	66.6036	-27.3828	-154.929	77.5682	-7.12695	-201.898	59.2799	-16.1285	-211.807	66.5926	18.8102	-212.902	98.0121	-3.18036	
46	0.383333	-198.193	127.91	8.04163	-195.771	144.78	-10.3158	-204.188	154.738	-30.5479	-211.802	168.939	-44.3959	-167.307	114.183	-69.3531	-136.557	116.463	-57.6205	-156.231	116.578	-25.3312	-157.91	91.2828	-69.1055	-130.181	101.913	-47.2596	-152.392	102.476	-17.3129	-149.263	67.0412	-55.8652	-128.299	86.4721	-36.2316	-151.677	84.9432	-10.2015	-145.265	52.9157	-43.2435	-130.883	70.6933	-29.2843	-153.501	77.5729	-6.94314	-200.81	62.499	-18.8498	-208.99	64.2614	18.5643	-212.815	97.8819	-4.72542	
47	0.391667	-199.977	129.012	9.02783	-196.715	140.333	-13.102	-211.088	156.462	-32.647	-216.747	170.619	-40.1828	-164.731	115.692	-70.0555	-138.7	121.371	-57.17	-157.54	123.211	-24.5525	-159.373	90.305	-67.2856	-130.104	101.459	-47.4549	-155.016	105.878	-16.5627	-144.704	72.4319	-54.9489	-128.816	89.6352	-34.5474	-153.859	87.9356	-8.99992	-146.871	55.8076	-41.5526	-130.603	73.9581	-24.2447	-157.214	78.5252	-5.24783	-197.905	61.4028	-15.5807	-210.075	65.0736	14.4756	-215.027	96.4022	-5.62471	
48	0.4	-203.286	127.415	11.2268	-200.978	140.248	-12.678	-216.648	154.926	-32.7386	-223.413	165.539	-45.9766	-168.722	116.789	-70.2495	-140.082	122.583	-54.9773	-160.143	123.291	-24.4794	-158.548	91.1524	-66.4323	-133.425	109.565	-46.6437	-160.377	109.771	-17.1618	-149.551	76.7631	-54.6731	-128.657	91.199	-30.6108	-158.551	93.1074	-11.3238	-141.085	58.6016	-40.6701	-132.333	80.0881	-22.0365	-156.346	82.359	-5.30478	-197.783	59.1447	-16.2836	-207.487	62.55	13.4895	-215.089	90.9773	-4.63446	
49	0.408333	-209.167	129.004	6.25394	-207.092	139.096	-13.5414	-220.963	150.355	-33.9877	-232.234	163.939	-45.0167	-169.214	118.815	-70.7154	-144.703	128.823	-53.0224	-164.335	127.906	-25.679	-158.779	95.7046	-67.953	-135.678	111.15	-47.0251	-162.937	106.745	-16.0699	-146.625	78.7664	-55.463	-131.67	98.717	-31.5054	-156.398	93.6011	-9.21815	-147.495	62.1496	-41.184	-133.693	84.3903	-25.8996	-159.219	83.6345	-2.51867	-197.894	60.1072	-20.0268	-207.665	65.1535	14.6223	-216.82	92.0531	-7.14447	
50	0.416667	-212.873	128.116	10.7133	-214.728	139.27	-14.371	-226.918	148.254	-33.6886	-240.303	162.331	-41.9837	-178.63	121.307	-68.7735	-148.286	129.53	-52.9553	-168.147	130.402	-25.4314	-161.828	97.6945	-67.1437	-138.932	115.858	-47.4429	-162.071	111.112	-17.1462	-150.594	82.3696	-55.898	-133.452	102.018	-30.716	-161.284	96.4081	-10.3421	-142.581	67.33	-41.067	-131.556	87.8011	-24.6932	-159.713	89.1224	-6.32066	-197.708	60.6296	-17.4518	-207.881	60.6079	14.2677	-219.25	89.7747	-7.47654	
51	0.425	-217.327	128.023	10.7086	-221.143	141.674	-11.8205	-232.718	146.991	-33.4835	-249.682	159.766	-43.8746	-180.146	122.005	-69.6226	-154.821	134.317	-53.4569	-176.773	128.978	-24.3134	-165.857	100.787	-67.5956	-144.035	121.741	-52.1278	-169.535	112.521	-16.4701	-153.123	88.2594	-56.8002	-138.572	109.215	-33.6606	-160.05	99.2692	-11.1199	-144.102	67.2466	-41.0464	-136.857	93.4954	-24.5824	-163.651	88.6603	-10.3975	-197.807	62.7856	-19.1045	-205.985	60.063	15.898	-222.847	90.5658	-8.31267	
